<?xml version="1.0" encoding="iso-8859-1"?>
<!-- Generator: Adobe Illustrator 19.0.0, SVG Export Plug-In . SVG Version: 6.00 Build 0)  -->
<svg version="1.1" id="Capa_1" xmlns="http://www.w3.org/2000/svg" xmlns:xlink="http://www.w3.org/1999/xlink" x="0px" y="0px"
	 viewBox="0 0 490 490" style="enable-background:new 0 0 490 490;" xml:space="preserve">
<g>
	<g>
		<path d="M245,0C109.9,0,0,109.9,0,245s109.9,245,245,245s245-109.9,245-245S380.1,0,245,0z M245,418.5
			c-95.7,0-173.5-77.8-173.5-173.5S149.3,71.5,245,71.5S418.5,149.3,418.5,245S340.7,418.5,245,418.5z"/>
		<path d="M314.6,135.9c-6.2-4-14.4-2.5-18.9,3.4L242.3,210c-10.6,0.8-20.6,6.4-26.7,16c-10.4,16.3-5.6,37.9,10.6,48.3
			c16.3,10.4,37.9,5.6,48.3-10.6c6.1-9.6,7-21.1,3.3-31l41.7-78.2C322.9,148,320.8,139.9,314.6,135.9z M256.9,252.4
			c-4.2,6.6-12.9,8.5-19.5,4.3s-8.5-12.9-4.3-19.5s12.9-8.5,19.5-4.3C259.2,237.1,261.1,245.8,256.9,252.4z"/>
		<path d="M335,203.9c-3.2-7.1-0.1-15.5,7-18.7s15.5-0.1,18.7,7s0.1,15.5-7,18.7c-1.3,0.6-2.6,1-3.9,1.1
			C343.7,212.9,337.6,209.7,335,203.9z"/>
		<path d="M339.1,308.9c5.9,5.1,6.5,14.1,1.4,19.9c-2.4,2.7-5.5,4.3-8.7,4.7c-3.9,0.5-8-0.5-11.2-3.3c-5.9-5.1-6.5-14.1-1.4-19.9
			C324.4,304.4,333.3,303.8,339.1,308.9z"/>
		<path d="M370.7,263.5c-1,6.4-6,11.1-12,11.9c-1.3,0.2-2.6,0.2-4,0c-7.7-1.1-13-8.3-11.9-16s8.3-13,16-11.9
			C366.5,248.6,371.8,255.8,370.7,263.5z"/>
		<path d="M245,146.9c2.9,0,5.9,0.2,8.8,0.4l19.1-25.3c0.7-1,1.5-1.9,2.4-2.8c-9.9-2.4-20-3.6-30.2-3.6
			c-71.3,0-129.4,58-129.4,129.4c0,30.5,10.8,60.2,30.5,83.4l1.4,1.6c3.1,3.5,7.4,5.4,11.8,5.4c3.6,0,7.3-1.3,10.3-3.8
			c6.5-5.7,7.2-15.5,1.5-22l-1.1-1.3C155.2,290.6,147,268.2,147,245C146.9,190.9,190.9,146.9,245,146.9z"/>
	</g>
</g>
<g>
</g>
<g>
</g>
<g>
</g>
<g>
</g>
<g>
</g>
<g>
</g>
<g>
</g>
<g>
</g>
<g>
</g>
<g>
</g>
<g>
</g>
<g>
</g>
<g>
</g>
<g>
</g>
<g>
</g>
</svg>
